<?xml version="1.0" encoding="utf-8"?>
<!-- Generator: Adobe Illustrator 16.0.0, SVG Export Plug-In . SVG Version: 6.00 Build 0)  -->
<!DOCTYPE svg PUBLIC "-//W3C//DTD SVG 1.1//EN" "http://www.w3.org/Graphics/SVG/1.1/DTD/svg11.dtd">
<svg version="1.1" id="Layer_1" xmlns="http://www.w3.org/2000/svg" xmlns:xlink="http://www.w3.org/1999/xlink" x="0px" y="0px"
	 width="24px" height="24px" viewBox="0 0 24 24" enable-background="new 0 0 24 24" xml:space="preserve">
<g>
	<path d="M13.613,13.792c-0.306-0.403-0.73-0.605-1.274-0.605L12,13.216v-0.015c-0.399,0.066-0.729,0.263-0.99,0.587
		c-0.325,0.407-0.487,0.946-0.487,1.619c0,0.679,0.161,1.219,0.482,1.618C11.27,17.348,11.601,17.54,12,17.6v0.011l0.3,0.023
		c0.548,0,0.979-0.192,1.293-0.576c0.319-0.391,0.479-0.927,0.479-1.609C14.071,14.741,13.919,14.189,13.613,13.792z"/>
	<path d="M12,8.842C6.07,8.842,1.263,7.57,1.263,6v15.158C1.263,22.728,6.07,24,12,24s10.737-1.272,10.737-2.842V6.002
		C22.731,7.571,17.927,8.842,12,8.842z M7.871,17.924c-0.15,0.266-0.355,0.481-0.613,0.647C7,18.736,6.7,18.855,6.358,18.928
		C6.016,19,5.655,19.036,5.275,19.036c-0.391,0-0.762-0.032-1.114-0.097c-0.352-0.064-0.656-0.16-0.914-0.288v-1.536
		c0.284,0.235,0.594,0.413,0.928,0.53c0.334,0.118,0.671,0.177,1.011,0.177l0.523-0.057l0.373-0.157
		c0.1-0.066,0.175-0.146,0.224-0.235l0.073-0.295c0-0.137-0.039-0.26-0.117-0.367l-0.318-0.3l-0.479-0.265l-0.598-0.26
		c-0.545-0.228-0.951-0.508-1.219-0.839c-0.268-0.33-0.4-0.729-0.4-1.197c0-0.366,0.073-0.681,0.221-0.943
		c0.148-0.264,0.35-0.48,0.605-0.651c0.255-0.171,0.55-0.296,0.887-0.376c0.336-0.08,0.691-0.12,1.067-0.12l0.979,0.065
		c0.285,0.043,0.547,0.11,0.787,0.201v1.451l-0.383-0.223l-0.426-0.16L6.55,13.003l-0.413-0.03l-0.485,0.054l-0.37,0.152
		l-0.234,0.234c-0.055,0.091-0.083,0.192-0.083,0.305c0,0.118,0.031,0.224,0.093,0.316l0.263,0.265l0.414,0.246l0.549,0.247
		l0.752,0.376c0.223,0.132,0.413,0.282,0.572,0.449c0.158,0.167,0.279,0.357,0.364,0.571c0.084,0.214,0.126,0.464,0.126,0.748
		C8.097,17.328,8.021,17.658,7.871,17.924z M16.295,20.939l-0.438,0.086l-0.681,0.043c-0.323,0-0.621-0.052-0.893-0.156
		c-0.271-0.105-0.531-0.248-0.78-0.431c-0.249-0.182-0.491-0.396-0.727-0.642l-0.734-0.792L12,19.047v-0.012
		c-0.475-0.016-0.906-0.116-1.295-0.299c-0.396-0.187-0.735-0.438-1.018-0.755c-0.281-0.316-0.499-0.687-0.653-1.114
		c-0.153-0.426-0.23-0.883-0.23-1.372c0-1.117,0.324-2.018,0.974-2.704c0.573-0.605,1.313-0.945,2.223-1.018v0.014l0.395-0.016
		c1.009,0,1.827,0.331,2.452,0.993c0.628,0.656,0.942,1.522,0.942,2.6c0,0.842-0.192,1.567-0.575,2.172
		c-0.384,0.601-0.918,1.022-1.604,1.268l0.489,0.47l0.466,0.291l0.481,0.147l0.537,0.041l0.174-0.007l0.189-0.025l0.186-0.04
		l0.162-0.051V20.939z M21.146,18.947h-4.244v-7.074h1.617v5.76h2.627V18.947z"/>
	<path d="M12,0C6.07,0,1.263,1.272,1.263,2.842v1.263C1.263,5.675,6.07,6.947,12,6.947s10.737-1.272,10.737-2.842V2.842
		C22.731,1.271,17.927,0,12,0z M12,3.79c-4.884,0-8.842-0.424-8.842-0.947c0-0.523,3.958-0.948,8.842-0.948s8.842,0.424,8.842,0.948
		C20.842,3.365,16.884,3.79,12,3.79z"/>
</g>
</svg>
